<svg viewBox="0 0 450 90" xmlns="http://www.w3.org/2000/svg" xmlns:xlink="http://www.w3.org/1999/xlink" id="レイヤー_1" overflow="hidden"><g><g><path d="M184.7 79.7C184.7 85.4 180.1 90 174.4 90L170.3 90C164.6 90 160 85.4 160 79.7L160 10.3C160 4.6 164.6 0 170.3 0L174.4 0C180.1 0 184.7 4.6 184.7 10.3L184.7 79.7Z" stroke-width="1.00017" fill="#18A93C"/><path d="M282.3 82.2C278.3 86.2 271.8 86.2 267.8 82.2L264.9 79.3C260.9 75.3 260.9 68.8 264.9 64.8L318.7 11C322.7 7 329.2 7 333.2 11L336.1 13.9C340.1 17.9 340.1 24.4 336.1 28.4L282.3 82.2Z" stroke-width="1.00017" fill="#18A93C"/></g><g><path d="M450 10.2C450 4.5 446 2.3 441.2 5.3L386.1 40C381.3 43 381.3 48 386.1 51L441.2 85.6C446 88.6 450 86.5 450 80.7L450 10.2Z" stroke-width="1.00017" fill="#45B038"/><path d="M207 32.7C212.7 32.7 217.3 37.3 217.3 43L217.3 47.1C217.3 52.8 212.7 57.4 207 57.4L137.6 57.4C131.9 57.4 127.3 52.8 127.3 47.1L127.3 43C127.3 37.3 131.9 32.7 137.6 32.7L207 32.7Z" stroke-width="1.00017" fill="#45B038"/><circle cx="42" cy="46" r="42" stroke-width="1.00017" fill="#45B038"/><path d="M336.1 64.7C340.1 68.7 340.1 75.2 336.1 79.2L333.2 82.1C329.2 86.1 322.7 86.1 318.7 82.1L264.9 28.3C260.9 24.3 260.9 17.8 264.9 13.8L267.8 10.9C271.8 6.9 278.3 6.9 282.3 10.9L336.1 64.7Z" stroke-width="1.00017" fill="#45B038"/></g></g></svg>