<svg viewBox="0 0 450 170" xmlns="http://www.w3.org/2000/svg" xmlns:xlink="http://www.w3.org/1999/xlink" id="レイヤー_1" overflow="hidden"><g><g><path d="M176.3 139 179.2 139.8 179.2 160.2C179.2 163.5 174.4 166.3 174.3 166.3L174 166.4 175.8 170 176.1 169.9C179.7 168.3 184.4 165.4 184.4 159.4L184.4 135 176.3 135 176.3 139Z"/><path d="M217.2 156.1 208.4 135.1 208.3 134.9 201.6 134.9 201.6 164.2 206.8 164.2 206.8 143.5 215 162.5 219.4 162.5 227.7 143.5 227.7 164.2 232.8 164.2 232.8 134.9 226.1 134.9Z"/><path d="M265.6 136.8C263.6 135.6 261.2 135 258.8 135L248.5 135 248.5 164.3 258.8 164.3C261.1 164.3 263.7 163.6 265.6 162.5 269.8 160.1 272.2 155.5 272.2 149.7 272.1 145.5 271 139.9 265.6 136.8ZM253.7 139.9 258 139.9C259.2 139.9 261.4 140.1 263.3 141.2 265.8 142.7 267 145.5 267 149.5 267 152.4 266.4 156.2 263.3 157.9 261.2 159.1 259.2 159.2 258 159.2L253.7 159.2 253.7 139.9Z"/><path d="M304.8 158.3C304.8 158.3 301.6 159.8 297.9 159.8 292 159.8 287.8 155.5 287.8 149.5 287.8 143.5 292 139.2 297.9 139.2 301.7 139.2 304.8 140.7 304.8 140.7L305.1 140.8 307 136.9 306.7 136.7C304.7 135.6 301.2 134.4 297.8 134.4 289.1 134.4 282.3 141 282.3 149.4 282.3 157.8 289.1 164.4 297.8 164.4 301.2 164.4 304.8 163.3 306.7 162.1L307 161.9 305.1 158 304.8 158.3Z"/></g><g><g><path d="M184.7 79.7C184.7 85.4 180.1 90 174.4 90L170.3 90C164.6 90 160 85.4 160 79.7L160 10.3C160 4.6 164.6 0 170.3 0L174.4 0C180.1 0 184.7 4.6 184.7 10.3L184.7 79.7 184.7 79.7Z" fill="#18A93C"/><path d="M282.3 82.2C278.3 86.2 271.8 86.2 267.8 82.2L264.9 79.3C260.9 75.3 260.9 68.8 264.9 64.8L318.7 11C322.7 7 329.2 7 333.2 11L336.1 13.9C340.1 17.9 340.1 24.4 336.1 28.4L282.3 82.2Z" fill="#18A93C"/></g><g><path d="M450 10.2C450 4.5 446 2.3 441.2 5.3L386.1 40C381.3 43 381.3 48 386.1 51L441.2 85.6C446 88.6 450 86.5 450 80.7L450 10.2Z" fill="#45B038"/><path d="M207 32.7C212.7 32.7 217.3 37.3 217.3 43L217.3 47.1C217.3 52.8 212.7 57.4 207 57.4L137.6 57.4C131.9 57.4 127.3 52.8 127.3 47.1L127.3 43C127.3 37.3 131.9 32.7 137.6 32.7L207 32.7Z" fill="#45B038"/><circle cx="42" cy="46" r="42" fill="#45B038"/><path d="M336.1 64.7C340.1 68.7 340.1 75.2 336.1 79.2L333.2 82.1C329.2 86.1 322.7 86.1 318.7 82.1L264.9 28.3C260.9 24.3 260.9 17.8 264.9 13.8L267.8 10.9C271.8 6.9 278.3 6.9 282.3 10.9L336.1 64.7Z" fill="#45B038"/></g></g></g></svg>