<svg viewBox="0 0 340.2 165.2" xmlns="http://www.w3.org/2000/svg" xmlns:xlink="http://www.w3.org/1999/xlink" id="レイヤー_1" overflow="hidden"><g><g><path d="M5.8 11.3 13.3 13.3 13.3 65.4C13.3 73.9 1 81 0.7 81.1L0 81.5 4.6 90.8 5.4 90.5C14.5 86.4 26.6 79.1 26.6 63.6L26.6 1 5.8 1 5.8 11.3Z"/><path d="M110.5 55.1 88 1.5 87.8 1 70.7 1 70.7 75.8 83.9 75.8 83.9 22.9 104.9 71.5 116.2 71.5 137.3 22.8 137.3 75.8 150.4 75.8 150.4 1 133.3 1Z"/><path d="M234.3 5.7C229.2 2.6 223 1 216.8 1L190.5 1 190.5 75.9 216.8 75.9C222.7 75.9 229.2 74.1 234.3 71.2 245 65.1 251.1 53.2 251.1 38.5 251.1 27.9 248.1 13.8 234.3 5.7ZM203.8 13.6 214.7 13.6C217.7 13.6 223.4 14 228.4 17 234.7 20.8 237.9 27.9 237.9 38.3 237.9 45.6 236.3 55.3 228.4 59.8 223 62.9 218 63.2 214.7 63.2L203.8 63.2 203.8 13.6 203.8 13.6Z"/><path d="M334.5 60.8C334.4 60.8 326.4 64.7 316.8 64.7 301.8 64.7 290.9 53.6 290.9 38.4 290.9 23.2 301.8 12.1 316.8 12.1 326.4 12.1 334.4 15.9 334.5 16L335.3 16.4 340.2 6.3 339.5 5.9C334.5 3 325.5 1.77636e-15 316.7 1.77636e-15 294.4 1.77636e-15 277 16.9 277 38.4 277 59.9 294.5 76.8 316.7 76.8 325.5 76.8 334.5 73.9 339.5 70.9L340.2 70.5 335.3 60.4 334.5 60.8Z"/></g><g><g><path d="M181.4 159.5C181.4 162.6 178.8 165.2 175.7 165.2L173.4 165.2C170.3 165.2 167.7 162.6 167.7 159.5L167.7 121C167.7 117.9 170.3 115.3 173.4 115.3L175.7 115.3C178.8 115.3 181.4 117.9 181.4 121L181.4 159.5Z" fill="#18A93C"/><path d="M235.5 160.9C233.3 163.1 229.6 163.1 227.4 160.9L225.8 159.3C223.6 157.1 223.6 153.4 225.8 151.2L255.6 121.4C257.8 119.2 261.5 119.2 263.7 121.4L265.3 123C267.5 125.2 267.5 128.9 265.3 131.1L235.5 160.9Z" fill="#18A93C"/></g><g><path d="M328.5 121C328.5 117.8 326.3 116.6 323.6 118.3L293.1 137.5C290.4 139.2 290.4 141.9 293.1 143.6L323.6 162.8C326.3 164.5 328.5 163.3 328.5 160.1L328.5 121Z" fill="#45B038"/><path d="M193.8 133.4C196.9 133.4 199.5 136 199.5 139.1L199.5 141.4C199.5 144.5 196.9 147.1 193.8 147.1L155.3 147.1C152.2 147.1 149.6 144.5 149.6 141.4L149.6 139.1C149.6 136 152.2 133.4 155.3 133.4L193.8 133.4Z" fill="#45B038"/><circle cx="102.3" cy="140.8" r="23.3" fill="#45B038"/><path d="M265.4 151.2C267.6 153.4 267.6 157.1 265.4 159.3L263.8 160.9C261.6 163.1 257.9 163.1 255.7 160.9L225.9 131.1C223.7 128.9 223.7 125.2 225.9 123L227.5 121.4C229.7 119.2 233.4 119.2 235.6 121.4L265.4 151.2Z" fill="#45B038"/></g></g></g></svg>